<svg xmlns="http://www.w3.org/2000/svg" viewBox="0 0 96 96" role="img" aria-label="Nutricion">
  <rect width="96" height="96" rx="24" fill="#0B1E33"/>
  <path d="M51 27c4-9 11-13 22-12-1 11-7 18-18 21" fill="#91C83E"/>
  <path d="M49 36c-10-13-30-4-30 17 0 18 12 30 25 30 4 0 8-2 11-2 3 0 7 2 11 2 13 0 25-12 25-30 0-21-20-30-30-17-4 5-8 5-12 0z" fill="#D9E8FF"/>
  <path d="M50 22c3 7 3 13 0 19" stroke="#91C83E" stroke-width="6" stroke-linecap="round"/>
  <path d="M39 52c-4 5-5 12-2 19" stroke="#0B1E33" stroke-width="6" stroke-linecap="round" opacity=".55"/>
</svg>
